<svg width="19" height="19" viewBox="0 0 19 19" fill="none" xmlns="http://www.w3.org/2000/svg">
<path d="M9.3335 2.1665L3.3335 4.83317V8.83317C3.3335 12.5332 5.8935 15.9932 9.3335 16.8332C12.7735 15.9932 15.3335 12.5332 15.3335 8.83317V4.83317L9.3335 2.1665ZM9.3335 4.7665C9.72906 4.7665 10.1157 4.8838 10.4446 5.10356C10.7735 5.32333 11.0299 5.63568 11.1813 6.00114C11.3326 6.36659 11.3722 6.76872 11.2951 7.15668C11.2179 7.54465 11.0274 7.90101 10.7477 8.18072C10.468 8.46042 10.1116 8.6509 9.72368 8.72807C9.33571 8.80524 8.93358 8.76564 8.56813 8.61426C8.20268 8.46289 7.89032 8.20654 7.67056 7.87764C7.45079 7.54875 7.3335 7.16207 7.3335 6.7665C7.3335 6.23607 7.54421 5.72736 7.91928 5.35229C8.29436 4.97722 8.80306 4.7665 9.3335 4.7665ZM9.3335 10.0332C10.6668 10.0332 13.3335 10.7598 13.3335 12.0865C12.8956 12.7466 12.3013 13.288 11.6033 13.6626C10.9054 14.0372 10.1256 14.2332 9.3335 14.2332C8.5414 14.2332 7.76161 14.0372 7.06368 13.6626C6.36574 13.288 5.77134 12.7466 5.3335 12.0865C5.3335 10.7598 8.00016 10.0332 9.3335 10.0332Z" fill="#E2C179"/>
</svg>
