<svg width="32" height="32" viewBox="0 0 32 32" fill="none" xmlns="http://www.w3.org/2000/svg">
<path d="M10.6665 23.9998C9.93317 23.9998 9.30561 23.7389 8.78384 23.2172C8.26206 22.6954 8.00073 22.0674 7.99984 21.3332V5.33317C7.99984 4.59984 8.26117 3.97228 8.78384 3.4505C9.3065 2.92873 9.93406 2.66739 10.6665 2.6665H26.6665C27.3998 2.6665 28.0278 2.92784 28.5505 3.4505C29.0732 3.97317 29.3341 4.60073 29.3332 5.33317V21.3332C29.3332 22.0665 29.0723 22.6945 28.5505 23.2172C28.0287 23.7398 27.4007 24.0007 26.6665 23.9998H10.6665ZM5.33317 29.3332C4.59984 29.3332 3.97228 29.0723 3.4505 28.5505C2.92873 28.0287 2.66739 27.4007 2.6665 26.6665V7.99984H5.33317V26.6665H23.9998V29.3332H5.33317ZM17.3332 10.6665H26.6665V5.33317H17.3332V10.6665Z" fill="#2F2F2F" fill-opacity="0.9"/>
</svg>
