<svg width="32" height="32" viewBox="0 0 32 32" fill="none" xmlns="http://www.w3.org/2000/svg">
<path d="M26.6668 10.6665L18.6668 2.6665H8.00016C7.29292 2.6665 6.61464 2.94746 6.11454 3.44755C5.61445 3.94765 5.3335 4.62593 5.3335 5.33317V26.6665C5.3335 27.3737 5.61445 28.052 6.11454 28.5521C6.61464 29.0522 7.29292 29.3332 8.00016 29.3332H24.0002C24.7074 29.3332 25.3857 29.0522 25.8858 28.5521C26.3859 28.052 26.6668 27.3737 26.6668 26.6665V10.6665ZM12.0002 25.3332H9.3335V13.3332H12.0002V25.3332ZM17.3335 25.3332H14.6668V17.3332H17.3335V25.3332ZM22.6668 25.3332H20.0002V21.3332H22.6668V25.3332ZM18.6668 11.9998H17.3335V5.33317L24.0002 11.9998H18.6668Z" fill="#2F2522" fill-opacity="0.9"/>
</svg>
