<svg width="32" height="32" viewBox="0 0 32 32" fill="none" xmlns="http://www.w3.org/2000/svg">
<path d="M25.3333 4H6.66667C5.95942 4 5.28115 4.28095 4.78105 4.78105C4.28095 5.28115 4 5.95942 4 6.66667V25.3333C4 26.0406 4.28095 26.7189 4.78105 27.219C5.28115 27.719 5.95942 28 6.66667 28H25.3333C26.0406 28 26.7189 27.719 27.219 27.219C27.719 26.7189 28 26.0406 28 25.3333V6.66667C28 5.95942 27.719 5.28115 27.219 4.78105C26.7189 4.28095 26.0406 4 25.3333 4ZM8 8H14.6667V14.6667H8V8ZM14 25.3333C13.1159 25.3333 12.2681 24.9821 11.643 24.357C11.0179 23.7319 10.6667 22.8841 10.6667 22C10.6667 21.1159 11.0179 20.2681 11.643 19.643C12.2681 19.0179 13.1159 18.6667 14 18.6667C14.8841 18.6667 15.7319 19.0179 16.357 19.643C16.9821 20.2681 17.3333 21.1159 17.3333 22C17.3333 22.8841 16.9821 23.7319 16.357 24.357C15.7319 24.9821 14.8841 25.3333 14 25.3333ZM18 17.3333L22 10.6667L26 17.3333H18Z" fill="#2F2F2F" fill-opacity="0.9"/>
</svg>
