<svg width="32" height="32" viewBox="0 0 32 32" fill="none" xmlns="http://www.w3.org/2000/svg">
<path d="M8.00016 29.3332H24.0002C24.2375 29.3332 24.4642 29.2932 24.6828 29.2345L19.6708 24.2225C18.5835 24.9464 17.3064 25.3328 16.0002 25.3332C12.3242 25.3332 9.3335 22.3425 9.3335 18.6665C9.3335 14.9905 12.3242 11.9998 16.0002 11.9998C19.6762 11.9998 22.6668 14.9905 22.6668 18.6665C22.6673 19.9729 22.2808 21.2502 21.5562 22.3372L26.5682 27.3492C26.6268 27.1305 26.6668 26.9038 26.6668 26.6665V10.6665L18.6668 2.6665H8.00016C7.29292 2.6665 6.61464 2.94746 6.11454 3.44755C5.61445 3.94765 5.3335 4.62593 5.3335 5.33317V26.6665C5.3335 27.3737 5.61445 28.052 6.11454 28.5521C6.61464 29.0522 7.29292 29.3332 8.00016 29.3332Z" fill="#2F2F2F" fill-opacity="0.9"/>
<path d="M16 22.6665C18.2091 22.6665 20 20.8756 20 18.6665C20 16.4574 18.2091 14.6665 16 14.6665C13.7909 14.6665 12 16.4574 12 18.6665C12 20.8756 13.7909 22.6665 16 22.6665Z" fill="#2F2F2F" fill-opacity="0.9"/>
</svg>
