<svg width="32" height="32" viewBox="0 0 32 32" fill="none" xmlns="http://www.w3.org/2000/svg">
<path d="M2 17V27C2 28.654 3.346 30 5 30H8V14H5C3.346 14 2 15.346 2 17ZM29.142 13.63C28.7724 13.1221 28.2873 12.7094 27.7267 12.4259C27.1661 12.1425 26.5461 11.9965 25.918 12H19.052L19.98 7.36001C20.1102 6.70991 20.0945 6.03902 19.9341 5.39572C19.7736 4.75242 19.4723 4.15277 19.052 3.64001C18.6328 3.12637 18.1044 2.71265 17.5051 2.42895C16.9059 2.14525 16.251 1.99872 15.588 2.00001C14.7 2.00001 13.91 2.59601 13.686 3.38601L12.758 5.95801C12.0332 7.96234 11.1099 9.88924 10.002 11.71V30H22.796C23.6493 30.0031 24.4811 29.7319 25.1685 29.2263C25.856 28.7207 26.3627 28.0075 26.614 27.192L29.738 17.192C29.9282 16.5936 29.9733 15.9584 29.8697 15.3391C29.7661 14.7198 29.5166 14.134 29.142 13.63Z" fill="#2F2522" fill-opacity="0.9"/>
</svg>
