<svg width="32" height="32" viewBox="0 0 32 32" fill="none" xmlns="http://www.w3.org/2000/svg">
<path d="M19.3865 30.6668H9.33317C8.62593 30.6668 7.94765 30.3859 7.44755 29.8858C6.94746 29.3857 6.6665 28.7074 6.6665 28.0002V4.00016C6.6665 2.52016 7.85317 1.3335 9.33317 1.3335H22.6665C23.3737 1.3335 24.052 1.61445 24.5521 2.11454C25.0522 2.61464 25.3332 3.29292 25.3332 4.00016V17.3335C24.3998 17.3335 23.5065 17.5068 22.6665 17.8002V6.66683H9.33317V25.3335H17.3332C17.3332 27.3868 18.1065 29.2535 19.3865 30.6668ZM23.6665 29.5468L19.9998 25.5468L21.5465 24.0002L23.6665 26.1202L28.4532 21.3335L29.9998 23.2135L23.6665 29.5468Z" fill="#2F2522" fill-opacity="0.9"/>
</svg>
