<svg width="32" height="32" viewBox="0 0 32 32" fill="none" xmlns="http://www.w3.org/2000/svg">
<path d="M16 1.3335L4 6.66683V14.6668C4 22.0668 9.12 28.9868 16 30.6668C22.88 28.9868 28 22.0668 28 14.6668V6.66683L16 1.3335ZM16 6.5335C16.7911 6.5335 17.5645 6.76809 18.2223 7.20762C18.8801 7.64714 19.3928 8.27186 19.6955 9.00276C19.9983 9.73367 20.0775 10.5379 19.9231 11.3139C19.7688 12.0898 19.3878 12.8025 18.8284 13.3619C18.269 13.9213 17.5563 14.3023 16.7804 14.4566C16.0044 14.611 15.2002 14.5318 14.4693 14.229C13.7384 13.9263 13.1136 13.4136 12.6741 12.7558C12.2346 12.098 12 11.3246 12 10.5335C12 9.47263 12.4214 8.45521 13.1716 7.70507C13.9217 6.95492 14.9391 6.5335 16 6.5335ZM16 17.0668C18.6667 17.0668 24 18.5202 24 21.1735C23.1243 22.4937 21.9355 23.5766 20.5396 24.3257C19.1438 25.0749 17.5842 25.4669 16 25.4669C14.4158 25.4669 12.8562 25.0749 11.4604 24.3257C10.0645 23.5766 8.8757 22.4937 8 21.1735C8 18.5202 13.3333 17.0668 16 17.0668Z" fill="#2F2522" fill-opacity="0.9"/>
</svg>
