<svg width="18" height="19" viewBox="0 0 18 19" fill="none" xmlns="http://www.w3.org/2000/svg">
<path d="M9.00016 16.1668C12.6762 16.1668 15.6668 13.1762 15.6668 9.50016C15.6668 5.82416 12.6762 2.8335 9.00016 2.8335C5.32416 2.8335 2.3335 5.82416 2.3335 9.50016C2.3335 13.1762 5.32416 16.1668 9.00016 16.1668ZM11.3288 7.50016C11.4618 7.49677 11.594 7.52002 11.7178 7.56855C11.8416 7.61709 11.9544 7.68991 12.0496 7.78274C12.1448 7.87557 12.2205 7.98652 12.2721 8.10905C12.3237 8.23158 12.3503 8.36321 12.3503 8.49617C12.3502 8.62914 12.3235 8.76075 12.2718 8.88324C12.2201 9.00574 12.1444 9.11664 12.0491 9.2094C11.9539 9.30216 11.841 9.37492 11.7172 9.42337C11.5934 9.47181 11.4611 9.49498 11.3282 9.4915C11.0686 9.48469 10.8219 9.37676 10.6407 9.19071C10.4595 9.00466 10.3582 8.7552 10.3583 8.4955C10.3583 8.23581 10.4599 7.98642 10.6412 7.80049C10.8225 7.61456 11.0692 7.50679 11.3288 7.50016ZM8.4615 12.1128C8.81705 12.1843 9.18327 12.1843 9.53883 12.1128C9.70816 12.0777 9.87483 12.0259 10.0388 11.9575C10.1948 11.8908 10.3482 11.8082 10.4915 11.7122C10.6306 11.6171 10.7619 11.5084 10.8855 11.3862C11.0077 11.2644 11.1164 11.1328 11.2115 10.9915L12.3168 11.7362C12.0298 12.1624 11.6633 12.5293 11.2375 12.8168C10.8039 13.1095 10.3172 13.3142 9.80483 13.4195C9.2737 13.5265 8.72654 13.5263 8.1955 13.4188C7.68289 13.3154 7.19606 13.1107 6.7635 12.8168C6.33815 12.5279 5.97145 12.161 5.68283 11.7355L6.78816 10.9908C6.88416 11.1322 6.99261 11.2633 7.1135 11.3842C7.48186 11.7537 7.95055 12.0071 8.4615 12.1128ZM6.66683 7.50016C6.7982 7.50021 6.92827 7.52612 7.04962 7.57644C7.17096 7.62675 7.28122 7.70047 7.37407 7.79339C7.46693 7.88631 7.54058 7.99661 7.59081 8.11799C7.64104 8.23938 7.66687 8.36946 7.66683 8.50083C7.66679 8.6322 7.64087 8.76227 7.59056 8.88362C7.54024 9.00496 7.46652 9.11522 7.3736 9.20807C7.28068 9.30093 7.17038 9.37458 7.049 9.42481C6.92762 9.47504 6.79753 9.50087 6.66616 9.50083C6.40086 9.50074 6.14645 9.39526 5.95892 9.2076C5.77138 9.01994 5.66607 8.76547 5.66616 8.50016C5.66625 8.23486 5.77173 7.98045 5.95939 7.79292C6.14705 7.60538 6.40152 7.50007 6.66683 7.50016Z" fill="#E2C179"/>
</svg>
