<svg width="213" height="64" viewBox="0 0 213 64" fill="none" xmlns="http://www.w3.org/2000/svg">
<g filter="url(#filter0_di_9_535)">
<rect width="212.846" height="61.58" rx="20.1902" fill="url(#paint0_linear_9_535)" shape-rendering="crispEdges"/>
<g filter="url(#filter1_ii_9_535)">
<rect x="6.05713" y="6.05713" width="200.732" height="49.4659" rx="14.1331" fill="url(#paint1_linear_9_535)"/>
<path d="M28.5154 35.5659C27.5047 35.5659 26.6247 35.3816 25.8756 35.013C25.1384 34.6444 24.5558 34.1331 24.1277 33.4791C23.6996 32.8251 23.4499 32.0641 23.3786 31.1961L25.3584 31.0712C25.4416 31.6657 25.614 32.1711 25.8756 32.5873C26.1372 32.9916 26.488 33.3007 26.928 33.5147C27.3798 33.7169 27.9208 33.818 28.551 33.818C29.098 33.818 29.5617 33.7526 29.9422 33.6218C30.3346 33.4791 30.6319 33.271 30.834 32.9975C31.0362 32.724 31.1373 32.3911 31.1373 31.9987C31.1373 31.642 31.0481 31.3269 30.8697 31.0534C30.7033 30.768 30.3763 30.5123 29.8887 30.2864C29.4131 30.0486 28.7116 29.8167 27.7841 29.5908C26.7734 29.3411 25.9648 29.0676 25.3584 28.7704C24.752 28.4731 24.312 28.1045 24.0385 27.6645C23.7769 27.2127 23.6461 26.6598 23.6461 26.0058C23.6461 25.2804 23.8185 24.6443 24.1634 24.0973C24.5201 23.5384 25.0254 23.1044 25.6794 22.7953C26.3334 22.4861 27.1182 22.3315 28.0338 22.3315C28.9969 22.3315 29.8174 22.5099 30.4952 22.8666C31.1848 23.2233 31.7259 23.7109 32.1182 24.3292C32.5225 24.9475 32.7722 25.655 32.8674 26.4517L30.8876 26.5587C30.8281 26.0712 30.6795 25.6431 30.4417 25.2745C30.2038 24.894 29.8828 24.6027 29.4785 24.4005C29.0742 24.1865 28.5808 24.0795 27.9981 24.0795C27.2609 24.0795 26.6782 24.2519 26.2502 24.5967C25.834 24.9297 25.6259 25.3756 25.6259 25.9344C25.6259 26.2911 25.7092 26.5944 25.8756 26.8441C26.054 27.0819 26.3631 27.29 26.8031 27.4683C27.2549 27.6467 27.8911 27.8369 28.7116 28.0391C29.8055 28.2888 30.6735 28.5979 31.3156 28.9666C31.9696 29.3233 32.4333 29.7454 32.7068 30.2329C32.9803 30.7204 33.1171 31.2733 33.1171 31.8917C33.1171 32.6408 32.9209 33.2948 32.5285 33.8536C32.148 34.4006 31.6129 34.8227 30.9232 35.12C30.2336 35.4173 29.4309 35.5659 28.5154 35.5659ZM38.6437 35.2805C37.74 35.2805 37.0742 35.0724 36.6461 34.6563C36.218 34.2401 36.004 33.592 36.004 32.7121V23.5622H37.8946V32.5694C37.8946 33.0094 37.9897 33.3126 38.18 33.4791C38.3703 33.6455 38.6616 33.7288 39.054 33.7288H40.4095V35.2805H38.6437ZM34.5593 27.3435V25.7917H40.4095V27.3435H34.5593ZM44.8216 35.4946C43.8346 35.4946 43.0439 35.2686 42.4494 34.8168C41.8667 34.3649 41.5754 33.7288 41.5754 32.9083C41.5754 32.0879 41.8192 31.4517 42.3067 30.9999C42.8061 30.5361 43.573 30.2032 44.6075 30.001L47.8715 29.3768C47.8715 28.6396 47.6991 28.0926 47.3543 27.7359C47.0095 27.3673 46.4982 27.1829 45.8204 27.1829C45.214 27.1829 44.7383 27.3197 44.3935 27.5932C44.0487 27.8548 43.8109 28.2472 43.6801 28.7704L41.7359 28.6455C41.9143 27.6942 42.3542 26.9451 43.0558 26.3982C43.7692 25.8512 44.6908 25.5777 45.8204 25.5777C47.1046 25.5777 48.0796 25.9225 48.7455 26.6122C49.4233 27.29 49.7622 28.2472 49.7622 29.4838V33.1759C49.7622 33.4018 49.7978 33.5623 49.8692 33.6574C49.9524 33.7407 50.0832 33.7823 50.2616 33.7823H50.6004V35.2805C50.541 35.2924 50.4459 35.3043 50.3151 35.3162C50.1843 35.3281 50.0475 35.334 49.9048 35.334C49.5006 35.334 49.1498 35.2686 48.8525 35.1378C48.5671 35.007 48.3531 34.793 48.2104 34.4957C48.0677 34.1866 47.9964 33.7763 47.9964 33.265L48.1926 33.3542C48.0975 33.7704 47.8894 34.139 47.5683 34.4601C47.2592 34.7811 46.8608 35.0368 46.3733 35.227C45.8977 35.4054 45.3804 35.4946 44.8216 35.4946ZM45.1248 33.9963C45.6955 33.9963 46.183 33.8893 46.5873 33.6753C46.9916 33.4493 47.3067 33.1402 47.5326 32.7478C47.7586 32.3554 47.8715 31.9095 47.8715 31.4101V30.8037L45.0891 31.3387C44.5183 31.4458 44.1141 31.6182 43.8763 31.856C43.6503 32.0819 43.5374 32.3732 43.5374 32.73C43.5374 33.1342 43.6741 33.4493 43.9476 33.6753C44.233 33.8893 44.6254 33.9963 45.1248 33.9963ZM52.1968 35.2805V25.7917H53.9269L53.9982 28.3066L53.8377 28.2531C53.9685 27.397 54.2301 26.7727 54.6225 26.3803C55.0268 25.9879 55.5678 25.7917 56.2456 25.7917H57.1552V27.4862H56.2456C55.7699 27.4862 55.3716 27.5634 55.0505 27.718C54.7295 27.8726 54.4857 28.1104 54.3193 28.4315C54.1647 28.7525 54.0874 29.1687 54.0874 29.68V35.2805H52.1968ZM62.071 35.2805C61.1673 35.2805 60.5014 35.0724 60.0733 34.6563C59.6453 34.2401 59.4312 33.592 59.4312 32.7121V23.5622H61.3219V32.5694C61.3219 33.0094 61.417 33.3126 61.6072 33.4791C61.7975 33.6455 62.0888 33.7288 62.4812 33.7288H63.8368V35.2805H62.071ZM57.9865 27.3435V25.7917H63.8368V27.3435H57.9865ZM70.2813 35.2805V22.6169H78.5037V24.3827H71.1909L72.2076 23.3304V29.1449L71.1909 28.2353H78.1827V29.9475H71.1909L72.2076 29.0379V35.2805H70.2813ZM80.1875 35.2805V25.7917H81.9176L81.989 28.3066L81.8285 28.2531C81.9593 27.397 82.2209 26.7727 82.6133 26.3803C83.0175 25.9879 83.5586 25.7917 84.2363 25.7917H85.146V27.4862H84.2363C83.7607 27.4862 83.3624 27.5634 83.0413 27.718C82.7203 27.8726 82.4765 28.1104 82.31 28.4315C82.1555 28.7525 82.0782 29.1687 82.0782 29.68V35.2805H80.1875ZM90.399 35.4946C89.4715 35.4946 88.6689 35.2924 87.9911 34.8881C87.3252 34.4838 86.808 33.9071 86.4394 33.158C86.0826 32.4089 85.9043 31.5349 85.9043 30.5361C85.9043 29.5373 86.0826 28.6693 86.4394 27.9321C86.808 27.1829 87.3252 26.6062 87.9911 26.202C88.657 25.7858 89.4418 25.5777 90.3455 25.5777C91.2016 25.5777 91.9567 25.7798 92.6106 26.1841C93.2646 26.5765 93.77 27.1473 94.1267 27.8964C94.4953 28.6455 94.6796 29.5492 94.6796 30.6075V31.089H87.8662C87.9138 32.0165 88.1576 32.7121 88.5975 33.1759C89.0494 33.6396 89.6558 33.8715 90.4168 33.8715C90.9757 33.8715 91.4394 33.7407 91.808 33.4791C92.1766 33.2175 92.4323 32.8667 92.575 32.4267L94.5369 32.5516C94.2872 33.4315 93.7938 34.145 93.0565 34.6919C92.3312 35.227 91.4454 35.4946 90.399 35.4946ZM87.8662 29.6622H92.682C92.6225 28.8179 92.3788 28.1937 91.9507 27.7894C91.5345 27.3851 90.9994 27.1829 90.3455 27.1829C89.6677 27.1829 89.1088 27.397 88.6689 27.825C88.2408 28.2412 87.9733 28.8536 87.8662 29.6622ZM100.501 35.4946C99.5739 35.4946 98.7713 35.2924 98.0936 34.8881C97.4277 34.4838 96.9104 33.9071 96.5418 33.158C96.1851 32.4089 96.0067 31.5349 96.0067 30.5361C96.0067 29.5373 96.1851 28.6693 96.5418 27.9321C96.9104 27.1829 97.4277 26.6062 98.0936 26.202C98.7594 25.7858 99.5442 25.5777 100.448 25.5777C101.304 25.5777 102.059 25.7798 102.713 26.1841C103.367 26.5765 103.872 27.1473 104.229 27.8964C104.598 28.6455 104.782 29.5492 104.782 30.6075V31.089H97.9687C98.0163 32.0165 98.26 32.7121 98.7 33.1759C99.1518 33.6396 99.7583 33.8715 100.519 33.8715C101.078 33.8715 101.542 33.7407 101.91 33.4791C102.279 33.2175 102.535 32.8667 102.677 32.4267L104.639 32.5516C104.39 33.4315 103.896 34.145 103.159 34.6919C102.434 35.227 101.548 35.4946 100.501 35.4946ZM97.9687 29.6622H102.784C102.725 28.8179 102.481 28.1937 102.053 27.7894C101.637 27.3851 101.102 27.1829 100.448 27.1829C99.7701 27.1829 99.2113 27.397 98.7713 27.825C98.3433 28.2412 98.0757 28.8536 97.9687 29.6622ZM113.974 35.2805V24.3827H110.085V22.6169H119.788V24.3827H115.9V35.2805H113.974ZM120.493 35.2805V25.7917H122.223L122.294 28.3066L122.134 28.2531C122.265 27.397 122.526 26.7727 122.919 26.3803C123.323 25.9879 123.864 25.7917 124.542 25.7917H125.451V27.4862H124.542C124.066 27.4862 123.668 27.5634 123.347 27.718C123.026 27.8726 122.782 28.1104 122.615 28.4315C122.461 28.7525 122.383 29.1687 122.383 29.68V35.2805H120.493ZM127.007 35.2805V25.7917H128.898V35.2805H127.007ZM126.972 24.4184V22.5277H128.934V24.4184H126.972ZM134.054 35.4946C133.067 35.4946 132.276 35.2686 131.682 34.8168C131.099 34.3649 130.808 33.7288 130.808 32.9083C130.808 32.0879 131.052 31.4517 131.539 30.9999C132.039 30.5361 132.806 30.2032 133.84 30.001L137.104 29.3768C137.104 28.6396 136.932 28.0926 136.587 27.7359C136.242 27.3673 135.731 27.1829 135.053 27.1829C134.447 27.1829 133.971 27.3197 133.626 27.5932C133.281 27.8548 133.043 28.2472 132.913 28.7704L130.968 28.6455C131.147 27.6942 131.587 26.9451 132.288 26.3982C133.002 25.8512 133.923 25.5777 135.053 25.5777C136.337 25.5777 137.312 25.9225 137.978 26.6122C138.656 27.29 138.995 28.2472 138.995 29.4838V33.1759C138.995 33.4018 139.03 33.5623 139.102 33.6574C139.185 33.7407 139.316 33.7823 139.494 33.7823H139.833V35.2805C139.774 35.2924 139.678 35.3043 139.548 35.3162C139.417 35.3281 139.28 35.334 139.137 35.334C138.733 35.334 138.382 35.2686 138.085 35.1378C137.8 35.007 137.586 34.793 137.443 34.4957C137.3 34.1866 137.229 33.7763 137.229 33.265L137.425 33.3542C137.33 33.7704 137.122 34.139 136.801 34.4601C136.492 34.7811 136.093 35.0368 135.606 35.227C135.13 35.4054 134.613 35.4946 134.054 35.4946ZM134.357 33.9963C134.928 33.9963 135.416 33.8893 135.82 33.6753C136.224 33.4493 136.539 33.1402 136.765 32.7478C136.991 32.3554 137.104 31.9095 137.104 31.4101V30.8037L134.322 31.3387C133.751 31.4458 133.347 31.6182 133.109 31.856C132.883 32.0819 132.77 32.3732 132.77 32.73C132.77 33.1342 132.907 33.4493 133.18 33.6753C133.466 33.8893 133.858 33.9963 134.357 33.9963ZM143.376 35.2805C142.758 35.2805 142.259 35.12 141.878 34.7989C141.498 34.4779 141.307 33.9666 141.307 33.265V22.6169H143.198V33.0867C143.198 33.3007 143.252 33.4612 143.359 33.5683C143.477 33.6753 143.644 33.7288 143.858 33.7288H144.607V35.2805H143.376Z" fill="#2F2522"/>
<rect x="160.352" y="7.06665" width="45.4279" height="45.4279" rx="13.1236" fill="url(#paint2_linear_9_535)"/>
<path d="M189.132 30.5839L177.006 30.5839M189.132 30.5839L183.935 35.7808M189.132 30.5839L183.935 25.387" stroke="#2F2522" stroke-width="1.7323" stroke-linecap="round" stroke-linejoin="round"/>
</g>
</g>
<defs>
<filter id="filter0_di_9_535" x="0" y="0" width="212.846" height="63.0943" filterUnits="userSpaceOnUse" color-interpolation-filters="sRGB">
<feFlood flood-opacity="0" result="BackgroundImageFix"/>
<feColorMatrix in="SourceAlpha" type="matrix" values="0 0 0 0 0 0 0 0 0 0 0 0 0 0 0 0 0 0 127 0" result="hardAlpha"/>
<feOffset dy="1.51426"/>
<feComposite in2="hardAlpha" operator="out"/>
<feColorMatrix type="matrix" values="0 0 0 0 1 0 0 0 0 1 0 0 0 0 1 0 0 0 0.1 0"/>
<feBlend mode="normal" in2="BackgroundImageFix" result="effect1_dropShadow_9_535"/>
<feBlend mode="normal" in="SourceGraphic" in2="effect1_dropShadow_9_535" result="shape"/>
<feColorMatrix in="SourceAlpha" type="matrix" values="0 0 0 0 0 0 0 0 0 0 0 0 0 0 0 0 0 0 127 0" result="hardAlpha"/>
<feOffset/>
<feGaussianBlur stdDeviation="1.00951"/>
<feComposite in2="hardAlpha" operator="arithmetic" k2="-1" k3="1"/>
<feColorMatrix type="matrix" values="0 0 0 0 0 0 0 0 0 0 0 0 0 0 0 0 0 0 0.08 0"/>
<feBlend mode="normal" in2="shape" result="effect2_innerShadow_9_535"/>
</filter>
<filter id="filter1_ii_9_535" x="6.05713" y="6.05713" width="200.732" height="49.4658" filterUnits="userSpaceOnUse" color-interpolation-filters="sRGB">
<feFlood flood-opacity="0" result="BackgroundImageFix"/>
<feBlend mode="normal" in="SourceGraphic" in2="BackgroundImageFix" result="shape"/>
<feColorMatrix in="SourceAlpha" type="matrix" values="0 0 0 0 0 0 0 0 0 0 0 0 0 0 0 0 0 0 127 0" result="hardAlpha"/>
<feOffset dy="-3.02852"/>
<feComposite in2="hardAlpha" operator="arithmetic" k2="-1" k3="1"/>
<feColorMatrix type="matrix" values="0 0 0 0 0.935434 0 0 0 0 0.701858 0 0 0 0 0.548039 0 0 0 1 0"/>
<feBlend mode="normal" in2="shape" result="effect1_innerShadow_9_535"/>
<feColorMatrix in="SourceAlpha" type="matrix" values="0 0 0 0 0 0 0 0 0 0 0 0 0 0 0 0 0 0 127 0" result="hardAlpha"/>
<feOffset dy="1.00951"/>
<feComposite in2="hardAlpha" operator="arithmetic" k2="-1" k3="1"/>
<feColorMatrix type="matrix" values="0 0 0 0 1 0 0 0 0 0.948167 0 0 0 0 0.913612 0 0 0 1 0"/>
<feBlend mode="normal" in2="effect1_innerShadow_9_535" result="effect2_innerShadow_9_535"/>
</filter>
<linearGradient id="paint0_linear_9_535" x1="106.423" y1="0" x2="106.423" y2="61.58" gradientUnits="userSpaceOnUse">
<stop stop-color="#FFE9DA"/>
<stop offset="1" stop-color="#FFD6BB"/>
</linearGradient>
<linearGradient id="paint1_linear_9_535" x1="106.423" y1="6.05712" x2="169.313" y2="82.0926" gradientUnits="userSpaceOnUse">
<stop stop-color="#FFE9DA"/>
<stop offset="1" stop-color="#FFD6BB"/>
</linearGradient>
<linearGradient id="paint2_linear_9_535" x1="183.066" y1="7.06665" x2="443.027" y2="158.882" gradientUnits="userSpaceOnUse">
<stop stop-color="#FFE9DA"/>
<stop offset="1" stop-color="#FFD6BB"/>
</linearGradient>
</defs>
</svg>
