<svg width="213" height="63" viewBox="0 0 213 63" fill="none" xmlns="http://www.w3.org/2000/svg">
<g filter="url(#filter0_di_9_528)">
<rect width="213" height="61" rx="20" fill="#EED8A9" fill-opacity="0.819608" shape-rendering="crispEdges"/>
<g filter="url(#filter1_ii_9_528)">
<rect x="6" y="6" width="201" height="49" rx="14" fill="url(#paint0_linear_9_528)"/>
<path d="M28.2986 35.788C27.2786 35.788 26.3906 35.602 25.6346 35.23C24.8906 34.858 24.3026 34.342 23.8706 33.682C23.4386 33.022 23.1866 32.254 23.1146 31.378L25.1126 31.252C25.1966 31.852 25.3706 32.362 25.6346 32.782C25.8986 33.19 26.2526 33.502 26.6966 33.718C27.1526 33.922 27.6986 34.024 28.3346 34.024C28.8866 34.024 29.3546 33.958 29.7386 33.826C30.1346 33.682 30.4346 33.472 30.6386 33.196C30.8426 32.92 30.9446 32.584 30.9446 32.188C30.9446 31.828 30.8546 31.51 30.6746 31.234C30.5066 30.946 30.1766 30.688 29.6846 30.46C29.2046 30.22 28.4966 29.986 27.5606 29.758C26.5406 29.506 25.7246 29.23 25.1126 28.93C24.5006 28.63 24.0566 28.258 23.7806 27.814C23.5166 27.358 23.3846 26.8 23.3846 26.14C23.3846 25.408 23.5586 24.766 23.9066 24.214C24.2666 23.65 24.7766 23.212 25.4366 22.9C26.0966 22.588 26.8886 22.432 27.8126 22.432C28.7846 22.432 29.6126 22.612 30.2966 22.972C30.9926 23.332 31.5386 23.824 31.9346 24.448C32.3426 25.072 32.5946 25.786 32.6906 26.59L30.6926 26.698C30.6326 26.206 30.4826 25.774 30.2426 25.402C30.0026 25.018 29.6786 24.724 29.2706 24.52C28.8626 24.304 28.3646 24.196 27.7766 24.196C27.0326 24.196 26.4446 24.37 26.0126 24.718C25.5926 25.054 25.3826 25.504 25.3826 26.068C25.3826 26.428 25.4666 26.734 25.6346 26.986C25.8146 27.226 26.1266 27.436 26.5706 27.616C27.0266 27.796 27.6686 27.988 28.4966 28.192C29.6006 28.444 30.4766 28.756 31.1246 29.128C31.7846 29.488 32.2526 29.914 32.5286 30.406C32.8046 30.898 32.9426 31.456 32.9426 32.08C32.9426 32.836 32.7446 33.496 32.3486 34.06C31.9646 34.612 31.4246 35.038 30.7286 35.338C30.0326 35.638 29.2226 35.788 28.2986 35.788ZM38.52 35.5C37.608 35.5 36.936 35.29 36.504 34.87C36.072 34.45 35.856 33.796 35.856 32.908V23.674H37.764V32.764C37.764 33.208 37.86 33.514 38.052 33.682C38.244 33.85 38.538 33.934 38.934 33.934H40.302V35.5H38.52ZM34.398 27.49V25.924H40.302V27.49H34.398ZM44.7547 35.716C43.7587 35.716 42.9607 35.488 42.3607 35.032C41.7727 34.576 41.4787 33.934 41.4787 33.106C41.4787 32.278 41.7247 31.636 42.2167 31.18C42.7207 30.712 43.4947 30.376 44.5387 30.172L47.8327 29.542C47.8327 28.798 47.6587 28.246 47.3107 27.886C46.9627 27.514 46.4467 27.328 45.7627 27.328C45.1507 27.328 44.6707 27.466 44.3227 27.742C43.9747 28.006 43.7347 28.402 43.6027 28.93L41.6407 28.804C41.8207 27.844 42.2647 27.088 42.9727 26.536C43.6927 25.984 44.6227 25.708 45.7627 25.708C47.0587 25.708 48.0427 26.056 48.7147 26.752C49.3987 27.436 49.7407 28.402 49.7407 29.65V33.376C49.7407 33.604 49.7767 33.766 49.8487 33.862C49.9327 33.946 50.0647 33.988 50.2447 33.988H50.5867V35.5C50.5267 35.512 50.4307 35.524 50.2987 35.536C50.1667 35.548 50.0287 35.554 49.8847 35.554C49.4767 35.554 49.1227 35.488 48.8227 35.356C48.5347 35.224 48.3187 35.008 48.1747 34.708C48.0307 34.396 47.9587 33.982 47.9587 33.466L48.1567 33.556C48.0607 33.976 47.8507 34.348 47.5267 34.672C47.2147 34.996 46.8127 35.254 46.3207 35.446C45.8407 35.626 45.3187 35.716 44.7547 35.716ZM45.0607 34.204C45.6367 34.204 46.1287 34.096 46.5367 33.88C46.9447 33.652 47.2627 33.34 47.4907 32.944C47.7187 32.548 47.8327 32.098 47.8327 31.594V30.982L45.0247 31.522C44.4487 31.63 44.0407 31.804 43.8007 32.044C43.5727 32.272 43.4587 32.566 43.4587 32.926C43.4587 33.334 43.5967 33.652 43.8727 33.88C44.1607 34.096 44.5567 34.204 45.0607 34.204ZM52.1977 35.5V25.924H53.9437L54.0157 28.462L53.8537 28.408C53.9857 27.544 54.2497 26.914 54.6457 26.518C55.0537 26.122 55.5997 25.924 56.2837 25.924H57.2017V27.634H56.2837C55.8037 27.634 55.4017 27.712 55.0777 27.868C54.7537 28.024 54.5077 28.264 54.3397 28.588C54.1837 28.912 54.1057 29.332 54.1057 29.848V35.5H52.1977ZM62.1626 35.5C61.2506 35.5 60.5786 35.29 60.1466 34.87C59.7146 34.45 59.4986 33.796 59.4986 32.908V23.674H61.4066V32.764C61.4066 33.208 61.5026 33.514 61.6946 33.682C61.8866 33.85 62.1806 33.934 62.5766 33.934H63.9446V35.5H62.1626ZM58.0406 27.49V25.924H63.9446V27.49H58.0406ZM70.4484 35.5V22.72H78.7464V24.502H71.3664L72.3924 23.44V29.308L71.3664 28.39H78.4224V30.118H71.3664L72.3924 29.2V35.5H70.4484ZM80.4457 35.5V25.924H82.1917L82.2637 28.462L82.1017 28.408C82.2337 27.544 82.4977 26.914 82.8937 26.518C83.3017 26.122 83.8477 25.924 84.5317 25.924H85.4497V27.634H84.5317C84.0517 27.634 83.6497 27.712 83.3257 27.868C83.0017 28.024 82.7557 28.264 82.5877 28.588C82.4317 28.912 82.3537 29.332 82.3537 29.848V35.5H80.4457ZM90.751 35.716C89.815 35.716 89.005 35.512 88.321 35.104C87.649 34.696 87.127 34.114 86.755 33.358C86.395 32.602 86.215 31.72 86.215 30.712C86.215 29.704 86.395 28.828 86.755 28.084C87.127 27.328 87.649 26.746 88.321 26.338C88.993 25.918 89.785 25.708 90.697 25.708C91.561 25.708 92.323 25.912 92.983 26.32C93.643 26.716 94.153 27.292 94.513 28.048C94.885 28.804 95.071 29.716 95.071 30.784V31.27H88.195C88.243 32.206 88.489 32.908 88.933 33.376C89.389 33.844 90.001 34.078 90.769 34.078C91.333 34.078 91.801 33.946 92.173 33.682C92.545 33.418 92.803 33.064 92.947 32.62L94.927 32.746C94.675 33.634 94.177 34.354 93.433 34.906C92.701 35.446 91.807 35.716 90.751 35.716ZM88.195 29.83H93.055C92.995 28.978 92.749 28.348 92.317 27.94C91.897 27.532 91.357 27.328 90.697 27.328C90.013 27.328 89.449 27.544 89.005 27.976C88.573 28.396 88.303 29.014 88.195 29.83ZM100.946 35.716C100.01 35.716 99.2003 35.512 98.5163 35.104C97.8443 34.696 97.3223 34.114 96.9503 33.358C96.5903 32.602 96.4103 31.72 96.4103 30.712C96.4103 29.704 96.5903 28.828 96.9503 28.084C97.3223 27.328 97.8443 26.746 98.5163 26.338C99.1883 25.918 99.9803 25.708 100.892 25.708C101.756 25.708 102.518 25.912 103.178 26.32C103.838 26.716 104.348 27.292 104.708 28.048C105.08 28.804 105.266 29.716 105.266 30.784V31.27H98.3903C98.4383 32.206 98.6843 32.908 99.1283 33.376C99.5843 33.844 100.196 34.078 100.964 34.078C101.528 34.078 101.996 33.946 102.368 33.682C102.74 33.418 102.998 33.064 103.142 32.62L105.122 32.746C104.87 33.634 104.372 34.354 103.628 34.906C102.896 35.446 102.002 35.716 100.946 35.716ZM98.3903 29.83H103.25C103.19 28.978 102.944 28.348 102.512 27.94C102.092 27.532 101.552 27.328 100.892 27.328C100.208 27.328 99.6443 27.544 99.2003 27.976C98.7683 28.396 98.4983 29.014 98.3903 29.83ZM114.542 35.5V24.502H110.618V22.72H120.41V24.502H116.486V35.5H114.542ZM121.121 35.5V25.924H122.867L122.939 28.462L122.777 28.408C122.909 27.544 123.173 26.914 123.569 26.518C123.977 26.122 124.523 25.924 125.207 25.924H126.125V27.634H125.207C124.727 27.634 124.325 27.712 124.001 27.868C123.677 28.024 123.431 28.264 123.263 28.588C123.107 28.912 123.029 29.332 123.029 29.848V35.5H121.121ZM127.696 35.5V25.924H129.604V35.5H127.696ZM127.66 24.538V22.63H129.64V24.538H127.66ZM134.807 35.716C133.811 35.716 133.013 35.488 132.413 35.032C131.825 34.576 131.531 33.934 131.531 33.106C131.531 32.278 131.777 31.636 132.269 31.18C132.773 30.712 133.547 30.376 134.591 30.172L137.885 29.542C137.885 28.798 137.711 28.246 137.363 27.886C137.015 27.514 136.499 27.328 135.815 27.328C135.203 27.328 134.723 27.466 134.375 27.742C134.027 28.006 133.787 28.402 133.655 28.93L131.693 28.804C131.873 27.844 132.317 27.088 133.025 26.536C133.745 25.984 134.675 25.708 135.815 25.708C137.111 25.708 138.095 26.056 138.767 26.752C139.451 27.436 139.793 28.402 139.793 29.65V33.376C139.793 33.604 139.829 33.766 139.901 33.862C139.985 33.946 140.117 33.988 140.297 33.988H140.639V35.5C140.579 35.512 140.483 35.524 140.351 35.536C140.219 35.548 140.081 35.554 139.937 35.554C139.529 35.554 139.175 35.488 138.875 35.356C138.587 35.224 138.371 35.008 138.227 34.708C138.083 34.396 138.011 33.982 138.011 33.466L138.209 33.556C138.113 33.976 137.903 34.348 137.579 34.672C137.267 34.996 136.865 35.254 136.373 35.446C135.893 35.626 135.371 35.716 134.807 35.716ZM135.113 34.204C135.689 34.204 136.181 34.096 136.589 33.88C136.997 33.652 137.315 33.34 137.543 32.944C137.771 32.548 137.885 32.098 137.885 31.594V30.982L135.077 31.522C134.501 31.63 134.093 31.804 133.853 32.044C133.625 32.272 133.511 32.566 133.511 32.926C133.511 33.334 133.649 33.652 133.925 33.88C134.213 34.096 134.609 34.204 135.113 34.204ZM144.215 35.5C143.591 35.5 143.087 35.338 142.703 35.014C142.319 34.69 142.127 34.174 142.127 33.466V22.72H144.035V33.286C144.035 33.502 144.089 33.664 144.197 33.772C144.317 33.88 144.485 33.934 144.701 33.934H145.457V35.5H144.215Z" fill="#2F2F2F"/>
<rect x="161" y="7" width="45" height="45" rx="13" fill="url(#paint1_linear_9_528)"/>
<path d="M189.509 30.2959L177.497 30.2959M189.509 30.2959L184.361 35.4438M189.509 30.2959L184.361 25.1479" stroke="#2F2F2F" stroke-width="1.71598" stroke-linecap="round" stroke-linejoin="round"/>
</g>
</g>
<defs>
<filter id="filter0_di_9_528" x="0" y="0" width="213" height="62.5" filterUnits="userSpaceOnUse" color-interpolation-filters="sRGB">
<feFlood flood-opacity="0" result="BackgroundImageFix"/>
<feColorMatrix in="SourceAlpha" type="matrix" values="0 0 0 0 0 0 0 0 0 0 0 0 0 0 0 0 0 0 127 0" result="hardAlpha"/>
<feOffset dy="1.5"/>
<feComposite in2="hardAlpha" operator="out"/>
<feColorMatrix type="matrix" values="0 0 0 0 1 0 0 0 0 1 0 0 0 0 1 0 0 0 0.1 0"/>
<feBlend mode="normal" in2="BackgroundImageFix" result="effect1_dropShadow_9_528"/>
<feBlend mode="normal" in="SourceGraphic" in2="effect1_dropShadow_9_528" result="shape"/>
<feColorMatrix in="SourceAlpha" type="matrix" values="0 0 0 0 0 0 0 0 0 0 0 0 0 0 0 0 0 0 127 0" result="hardAlpha"/>
<feOffset/>
<feGaussianBlur stdDeviation="1"/>
<feComposite in2="hardAlpha" operator="arithmetic" k2="-1" k3="1"/>
<feColorMatrix type="matrix" values="0 0 0 0 0 0 0 0 0 0 0 0 0 0 0 0 0 0 0.08 0"/>
<feBlend mode="normal" in2="shape" result="effect2_innerShadow_9_528"/>
</filter>
<filter id="filter1_ii_9_528" x="6" y="6" width="201" height="49" filterUnits="userSpaceOnUse" color-interpolation-filters="sRGB">
<feFlood flood-opacity="0" result="BackgroundImageFix"/>
<feBlend mode="normal" in="SourceGraphic" in2="BackgroundImageFix" result="shape"/>
<feColorMatrix in="SourceAlpha" type="matrix" values="0 0 0 0 0 0 0 0 0 0 0 0 0 0 0 0 0 0 127 0" result="hardAlpha"/>
<feOffset dy="-3"/>
<feComposite in2="hardAlpha" operator="arithmetic" k2="-1" k3="1"/>
<feColorMatrix type="matrix" values="0 0 0 0 0.836354 0 0 0 0 0.756761 0 0 0 0 0.586723 0 0 0 1 0"/>
<feBlend mode="normal" in2="shape" result="effect1_innerShadow_9_528"/>
<feColorMatrix in="SourceAlpha" type="matrix" values="0 0 0 0 0 0 0 0 0 0 0 0 0 0 0 0 0 0 127 0" result="hardAlpha"/>
<feOffset dy="1"/>
<feComposite in2="hardAlpha" operator="arithmetic" k2="-1" k3="1"/>
<feColorMatrix type="matrix" values="0 0 0 0 1 0 0 0 0 0.982722 0 0 0 0 0.913612 0 0 0 1 0"/>
<feBlend mode="normal" in2="effect1_innerShadow_9_528" result="effect2_innerShadow_9_528"/>
</filter>
<linearGradient id="paint0_linear_9_528" x1="39.7369" y1="-23.8382" x2="194.797" y2="96.6101" gradientUnits="userSpaceOnUse">
<stop stop-color="#F2E6C9"/>
<stop offset="1" stop-color="#EED8A9"/>
</linearGradient>
<linearGradient id="paint1_linear_9_528" x1="-41.9464" y1="-156.285" x2="240.023" y2="146.912" gradientUnits="userSpaceOnUse">
<stop stop-color="white"/>
<stop offset="1" stop-color="#F1E2C1"/>
</linearGradient>
</defs>
</svg>
