<svg width="19" height="19" viewBox="0 0 19 19" fill="none" xmlns="http://www.w3.org/2000/svg">
<path d="M15.3335 6.16667C15.3335 7.64 12.6468 8.83333 9.3335 8.83333C6.02016 8.83333 3.3335 7.64 3.3335 6.16667C3.3335 4.69333 6.02016 3.5 9.3335 3.5C12.6468 3.5 15.3335 4.69333 15.3335 6.16667Z" fill="#E2C179"/>
<path d="M15.3335 6.16667C15.3335 7.64 12.6468 8.83333 9.3335 8.83333C6.02016 8.83333 3.3335 7.64 3.3335 6.16667M15.3335 6.16667C15.3335 4.69333 12.6468 3.5 9.3335 3.5C6.02016 3.5 3.3335 4.69333 3.3335 6.16667M15.3335 6.16667V9.5M3.3335 6.16667V9.5M15.3335 9.5C15.3335 10.9733 12.6468 12.1667 9.3335 12.1667C6.02016 12.1667 3.3335 10.9733 3.3335 9.5M15.3335 9.5V12.8333C15.3335 14.3067 12.6468 15.5 9.3335 15.5C6.02016 15.5 3.3335 14.3067 3.3335 12.8333V9.5" stroke="#E2C179" stroke-width="1.33333" stroke-linecap="round" stroke-linejoin="round"/>
</svg>
