<svg width="36" height="36" viewBox="0 0 36 36" fill="none" xmlns="http://www.w3.org/2000/svg">
<rect width="35.857" height="35.857" rx="17.9285" fill="#FFFEFF"/>
<ellipse cx="17.9283" cy="17.9996" rx="17.9283" ry="17.9996" fill="url(#paint0_linear_5_848)" style="mix-blend-mode:color-burn"/>
<ellipse cx="17.9283" cy="17.9996" rx="17.9283" ry="17.9996" fill="url(#paint1_linear_5_848)"/>
<path d="M5.78222 18.0208C4.78591 18.5895 4.87849 20.1061 5.94093 20.5469L12.126 23.1259V27.6798C12.126 28.4778 12.7697 29.1214 13.5676 29.1214C13.9952 29.1214 14.4008 28.9318 14.6741 28.6012L17.4074 25.3257L22.8695 27.6005C23.7027 27.9487 24.6682 27.4021 24.8048 26.5116L27.6262 8.17229C27.71 7.63887 27.4764 7.10103 27.0311 6.79685C26.5858 6.49266 26.0039 6.46621 25.5322 6.73513L5.78222 18.0208ZM8.07904 19.145L23.134 10.5441L13.453 21.3625L13.5059 21.4066L8.07904 19.145ZM22.8519 25.3037L15.5073 22.2398L24.9459 11.6903L22.8519 25.3037Z" fill="#2F2522"/>
<defs>
<linearGradient id="paint0_linear_5_848" x1="17.9283" y1="0" x2="17.9283" y2="35.9993" gradientUnits="userSpaceOnUse">
<stop stop-color="#FFE4DA"/>
<stop offset="1" stop-color="#FFCDBB"/>
</linearGradient>
<linearGradient id="paint1_linear_5_848" x1="17.9283" y1="0" x2="17.9283" y2="35.9993" gradientUnits="userSpaceOnUse">
<stop stop-color="#FFE4DA"/>
<stop offset="1" stop-color="#FFCDBB"/>
</linearGradient>
</defs>
</svg>
