<svg width="19" height="19" viewBox="0 0 19 19" fill="none" xmlns="http://www.w3.org/2000/svg">
<path d="M9.66634 7.5C9.13591 7.5 8.6272 7.71071 8.25213 8.08579C7.87705 8.46086 7.66634 8.96957 7.66634 9.5C7.66634 10.0304 7.87705 10.5391 8.25213 10.9142C8.6272 11.2893 9.13591 11.5 9.66634 11.5C10.1968 11.5 10.7055 11.2893 11.0806 10.9142C11.4556 10.5391 11.6663 10.0304 11.6663 9.5C11.6663 8.96957 11.4556 8.46086 11.0806 8.08579C10.7055 7.71071 10.1968 7.5 9.66634 7.5ZM9.66634 12.8333C8.78229 12.8333 7.93444 12.4821 7.30932 11.857C6.6842 11.2319 6.33301 10.3841 6.33301 9.5C6.33301 8.61595 6.6842 7.7681 7.30932 7.14298C7.93444 6.51786 8.78229 6.16667 9.66634 6.16667C10.5504 6.16667 11.3982 6.51786 12.0234 7.14298C12.6485 7.7681 12.9997 8.61595 12.9997 9.5C12.9997 10.3841 12.6485 11.2319 12.0234 11.857C11.3982 12.4821 10.5504 12.8333 9.66634 12.8333ZM9.66634 4.5C6.33301 4.5 3.48634 6.57333 2.33301 9.5C3.48634 12.4267 6.33301 14.5 9.66634 14.5C12.9997 14.5 15.8463 12.4267 16.9997 9.5C15.8463 6.57333 12.9997 4.5 9.66634 4.5Z" fill="#E2C179"/>
</svg>
