<svg width="1643" height="457" viewBox="0 0 1643 457" fill="none" xmlns="http://www.w3.org/2000/svg">
<g clip-path="url(#clip0_94_13)">
<g style="mix-blend-mode:overlay" opacity="0.72">
<path d="M1644 248C1644 248 1589.87 256.393 1560.5 253.5C1463.7 243.962 1420.61 183.233 1323.82 173.695C1224.84 163.943 1156.52 288.729 1057.55 278.977C962.928 269.653 930.037 90.3796 835.416 81.056C736.445 71.3037 648.949 360.116 549.978 350.364C452.094 340.719 442.777 218.399 344.894 208.754C247.01 199.109 186.685 265.181 88.801 255.536C55.0854 252.214 -3 247.5 -3 247.5" stroke="white" stroke-width="5"/>
</g>
<g style="mix-blend-mode:overlay" opacity="0.72">
<path d="M-1.50049 164.5C65.4995 155.961 79.5736 152.994 148.977 155.961C219.939 158.995 255.91 249.934 326.873 252.968C394.716 255.868 435.723 137.961 503.566 140.862C574.529 143.896 607.824 347.504 678.786 350.537C748.969 353.538 767.665 271.813 837.848 274.813C908.031 277.814 945.737 317.937 1015.92 320.938C1040.09 321.971 1094.23 279.217 1094.23 279.217" stroke="white" stroke-width="5"/>
</g>
<g style="mix-blend-mode:overlay" opacity="0.72">
<path d="M1643.5 164.5C1643.5 164.5 1609.63 171.861 1589.5 171C1523.13 168.163 1493.83 152.393 1427.46 149.555C1359.6 146.654 1318.84 194.281 1250.98 191.379C1186.1 188.606 1156.88 67.6956 1092 64.9219C1024.14 62.0206 975.418 262.123 907.556 259.221C840.44 256.352 829.451 173.358 762.335 170.489C695.219 167.619 655.946 204.452 588.83 201.582C565.713 200.594 559.143 187.774 559.143 187.774" stroke="white" stroke-width="5"/>
</g>
</g>
<defs>
<clipPath id="clip0_94_13">
<rect width="1643" height="457" fill="white"/>
</clipPath>
</defs>
</svg>
