<svg width="18" height="19" viewBox="0 0 18 19" fill="none" xmlns="http://www.w3.org/2000/svg">
<path d="M3.66667 3.5H14.3333C14.5101 3.5 14.6797 3.57024 14.8047 3.69526C14.9298 3.82029 15 3.98986 15 4.16667V5.224C15 5.4008 14.9297 5.57034 14.8047 5.69533L10.5287 9.97133C10.4036 10.0963 10.3334 10.2659 10.3333 10.4427V14.646C10.3333 14.7473 10.3102 14.8472 10.2658 14.9382C10.2214 15.0292 10.1568 15.1089 10.077 15.1712C9.9972 15.2336 9.90424 15.2769 9.80519 15.2979C9.70614 15.319 9.60359 15.3172 9.50533 15.2927L8.172 14.9593C8.02771 14.9233 7.8996 14.8402 7.80803 14.723C7.71647 14.6058 7.66671 14.4614 7.66667 14.3127V10.4427C7.66663 10.2659 7.59637 10.0963 7.47133 9.97133L3.19533 5.69533C3.0703 5.57034 3.00004 5.4008 3 5.224V4.16667C3 3.98986 3.07024 3.82029 3.19526 3.69526C3.32029 3.57024 3.48986 3.5 3.66667 3.5Z" fill="#E2C179" stroke="#E2C179" stroke-linecap="round" stroke-linejoin="round"/>
</svg>
