<svg width="48" height="48" viewBox="0 0 48 48" fill="none" xmlns="http://www.w3.org/2000/svg">
<rect x="4" y="4" width="40" height="40" rx="20" fill="#FFCE0A"/>
<rect x="4" y="4" width="40" height="40" rx="20" fill="#A9A9A9"/>
<rect x="2" y="2" width="44" height="44" rx="22" stroke="#0F0F0F" stroke-opacity="0.08" stroke-width="4"/>
<g clip-path="url(#clip0_6_390)">
<path d="M20.25 24C20.25 22.9552 20.3085 21.9495 20.4165 21H27.5835C27.6915 21.9495 27.75 22.9552 27.75 24C27.75 25.0448 27.6915 26.0505 27.5835 27H20.4165C20.3054 26.0039 20.2498 25.0023 20.25 24ZM18.9075 27C18.8023 26.0035 18.7497 25.0021 18.75 24C18.75 22.9658 18.8048 21.96 18.9075 21H13.935C13.6457 21.9737 13.4991 22.9842 13.5 24C13.5 25.0425 13.6523 26.0498 13.935 27H18.9075ZM14.5103 28.5H19.1138C19.3493 29.895 19.692 31.1603 20.1218 32.2335C20.3985 32.925 20.7165 33.552 21.0758 34.0875C19.6491 33.6721 18.3265 32.9595 17.195 31.9965C16.0634 31.0334 15.1484 29.8419 14.5103 28.5ZM20.6363 28.5H27.3638C27.1463 29.7 26.8463 30.774 26.4863 31.6763C26.0993 32.6423 25.6583 33.3728 25.2068 33.8513C24.7568 34.3268 24.3488 34.5 24 34.5C23.6513 34.5 23.2433 34.3268 22.7933 33.8505C22.3418 33.3728 21.9008 32.6423 21.5145 31.6763C21.1538 30.774 20.8538 29.6992 20.6363 28.5ZM28.8863 28.5C28.6508 29.895 28.308 31.1603 27.8783 32.2335C27.6015 32.925 27.2835 33.552 26.9243 34.0875C28.3509 33.6721 29.6735 32.9595 30.805 31.9965C31.9366 31.0334 32.8516 29.8419 33.4898 28.5H28.8863ZM34.065 27C34.3478 26.0498 34.5 25.0425 34.5 24C34.5 22.9575 34.3478 21.9502 34.065 21H29.0925C29.1953 21.96 29.25 22.9658 29.25 24C29.25 25.0342 29.1953 26.04 29.0925 27H34.065ZM26.4855 16.3237C26.8463 17.226 27.1463 18.3008 27.3638 19.5H20.6363C20.8538 18.3 21.1538 17.226 21.5138 16.3237C21.9008 15.3577 22.3418 14.6265 22.7933 14.1488C23.2418 13.6755 23.6483 13.5015 23.9963 13.5H24.0023C24.3503 13.5 24.7575 13.6747 25.2068 14.1495C25.6583 14.6265 26.0993 15.3577 26.4855 16.3237ZM28.8863 19.5H33.4898C32.8516 18.1581 31.9366 16.9666 30.805 16.0035C29.6735 15.0405 28.3509 14.3279 26.9243 13.9125C27.2835 14.448 27.6015 15.075 27.8783 15.7665C28.308 16.8397 28.6508 18.105 28.8863 19.5ZM14.5103 19.5H19.1138C19.3493 18.105 19.692 16.8397 20.1218 15.7665C20.3985 15.075 20.7165 14.448 21.0758 13.9125C19.6491 14.3279 18.3265 15.0405 17.195 16.0035C16.0634 16.9666 15.1484 18.1581 14.5103 19.5Z" fill="white"/>
</g>
<defs>
<clipPath id="clip0_6_390">
<rect width="24" height="24" fill="white" transform="translate(12 12)"/>
</clipPath>
</defs>
</svg>
