<svg width="19" height="16" viewBox="0 0 19 16" fill="none" xmlns="http://www.w3.org/2000/svg">
<path d="M9.83977 0.159668C9.50678 0.159668 9.17705 0.225255 8.86941 0.352684C8.56177 0.480113 8.28224 0.666889 8.04678 0.902347C7.81132 1.13781 7.62455 1.41733 7.49712 1.72498C7.36969 2.03262 7.3041 2.36234 7.3041 2.69533C7.3041 3.02832 7.36969 3.35805 7.49712 3.66569C7.62455 3.97333 7.81132 4.25286 8.04678 4.48832C8.28224 4.72378 8.56177 4.91055 8.86941 5.03798C9.17705 5.16541 9.50678 5.231 9.83977 5.231C10.5123 5.231 11.1572 4.96385 11.6328 4.48832C12.1083 4.01279 12.3754 3.36783 12.3754 2.69533C12.3754 2.02283 12.1083 1.37788 11.6328 0.902347C11.1572 0.426818 10.5123 0.159668 9.83977 0.159668ZM15.5507 1.42623C15.0458 1.42623 14.5616 1.62679 14.2046 1.9838C13.8476 2.3408 13.6471 2.825 13.6471 3.32988C13.6471 3.83476 13.8476 4.31897 14.2046 4.67597C14.5616 5.03297 15.0458 5.23354 15.5507 5.23354C16.0556 5.23354 16.5398 5.03297 16.8968 4.67597C17.2538 4.31897 17.4544 3.83476 17.4544 3.32988C17.4544 2.825 17.2538 2.3408 16.8968 1.9838C16.5398 1.62679 16.0556 1.42623 15.5507 1.42623ZM4.12881 1.42623C3.62393 1.42623 3.13973 1.62679 2.78272 1.9838C2.42572 2.3408 2.22516 2.825 2.22516 3.32988C2.22516 3.83476 2.42572 4.31897 2.78272 4.67597C3.13973 5.03297 3.62393 5.23354 4.12881 5.23354C4.63369 5.23354 5.11789 5.03297 5.4749 4.67597C5.8319 4.31897 6.03246 3.83476 6.03246 3.32988C6.03246 2.825 5.8319 2.3408 5.4749 1.9838C5.11789 1.62679 4.63369 1.42623 4.12881 1.42623ZM6.03246 7.76286C6.03481 7.42781 6.16955 7.10729 6.4073 6.8712C6.64505 6.63512 6.96651 6.50263 7.30156 6.50264H12.378C12.7146 6.50264 13.0374 6.63635 13.2754 6.87435C13.5134 7.11235 13.6471 7.43515 13.6471 7.77174V11.579C13.6474 11.9785 13.5849 12.3755 13.4618 12.7555C13.1808 13.6168 12.6019 14.3498 11.8291 14.8227C11.0563 15.2957 10.1402 15.4776 9.24536 15.3359C8.35048 15.1942 7.53543 14.7381 6.94657 14.0496C6.35771 13.361 6.03361 12.4851 6.03246 11.579V7.76286ZM4.76336 7.77174C4.76336 7.30852 4.88646 6.87575 5.10348 6.50264H2.22516C1.88857 6.50264 1.56577 6.63635 1.32777 6.87435C1.08976 7.11235 0.956055 7.43515 0.956055 7.77174V10.9445C0.955882 11.4639 1.08325 11.9755 1.32698 12.4342C1.57071 12.8929 1.92333 13.2848 2.3539 13.5754C2.78446 13.866 3.27979 14.0464 3.79638 14.1008C4.31297 14.1553 4.83502 14.082 5.31669 13.8875C4.95219 13.1722 4.76256 12.3806 4.76336 11.5778V7.77174ZM14.9162 7.77174V11.579C14.9162 12.4103 14.7169 13.1946 14.3628 13.8875C14.8445 14.082 15.3666 14.1553 15.8832 14.1008C16.3997 14.0464 16.8951 13.866 17.3256 13.5754C17.7562 13.2848 18.1088 12.8929 18.3526 12.4342C18.5963 11.9755 18.7237 11.4639 18.7235 10.9445V7.77174C18.7235 7.43515 18.5898 7.11235 18.3518 6.87435C18.1138 6.63635 17.791 6.50264 17.4544 6.50264H14.5761C14.7918 6.87575 14.9162 7.30852 14.9162 7.77174Z" fill="#2F2F2F"/>
</svg>
