<svg width="19" height="19" viewBox="0 0 19 19" fill="none" xmlns="http://www.w3.org/2000/svg">
<path fill-rule="evenodd" clip-rule="evenodd" d="M6.12123 3.76389C6.12991 3.62841 6.17645 3.49809 6.25554 3.38774C6.33463 3.2774 6.4431 3.19146 6.56861 3.13972C6.69412 3.08797 6.83163 3.07249 6.96551 3.09503C7.09939 3.11757 7.22425 3.17723 7.3259 3.26723L13.9599 9.15189C14.4426 9.57989 14.1679 10.3786 13.5232 10.4186L11.4452 10.5459L12.8399 13.8786C12.9758 14.2035 12.9776 14.569 12.845 14.8952C12.7123 15.2215 12.456 15.482 12.1319 15.6199L11.5532 15.8666C11.3919 15.9353 11.2185 15.9715 11.0431 15.9732C10.8677 15.9748 10.6937 15.9419 10.5311 15.8762C10.3685 15.8105 10.2204 15.7133 10.0954 15.5903C9.97039 15.4673 9.87088 15.3208 9.80256 15.1592L8.31856 11.6512L6.7699 12.9892C6.28323 13.4092 5.53123 13.0359 5.5719 12.3946L6.12123 3.76389Z" fill="#E2C179"/>
</svg>
