<svg width="32" height="32" viewBox="0 0 32 32" fill="none" xmlns="http://www.w3.org/2000/svg">
<path d="M13.3332 5.3335C16.2665 5.3335 18.6665 7.7335 18.6665 10.6668C18.6665 13.6002 16.2665 16.0002 13.3332 16.0002C10.3998 16.0002 7.99984 13.6002 7.99984 10.6668C7.99984 7.7335 10.3998 5.3335 13.3332 5.3335ZM22.6665 28.0002L25.0665 30.3602C25.7332 31.0268 26.6665 30.4935 26.6665 29.7068V24.0002L30.3998 19.4668C30.5484 19.2687 30.6389 19.0332 30.6611 18.7866C30.6834 18.54 30.6365 18.292 30.5257 18.0705C30.415 17.8491 30.2448 17.6628 30.0341 17.5326C29.8235 17.4024 29.5808 17.3335 29.3332 17.3335H19.9998C18.9332 17.3335 18.2665 18.6668 18.9332 19.4668L22.6665 24.0002V28.0002ZM19.9998 24.9335L16.9332 21.2002C16.3998 20.5335 16.1332 19.7335 16.1332 18.9335C15.1998 18.6668 14.2665 18.6668 13.3332 18.6668C7.4665 18.6668 2.6665 21.0668 2.6665 24.0002V26.6668H19.9998V24.9335Z" fill="#2F2522" fill-opacity="0.9"/>
</svg>
