<svg width="1670" height="457" viewBox="0 0 1670 457" fill="none" xmlns="http://www.w3.org/2000/svg">
<g style="mix-blend-mode:overlay" opacity="0.72">
<path d="M1654.92 271.573C1654.92 271.573 1606.92 289.1 1577.55 286.207C1480.75 276.669 1432.61 183.233 1335.82 173.695C1236.84 163.943 1168.52 288.729 1069.55 278.977C974.928 269.653 942.037 90.38 847.416 81.0564C748.445 71.3041 660.949 360.116 561.978 350.364C464.094 340.719 454.777 218.399 356.894 208.754C259.01 199.109 198.685 265.181 100.801 255.536C67.0854 252.214 8.99996 247.5 8.99996 247.5" stroke="white" stroke-width="5"/>
</g>
<g style="mix-blend-mode:overlay" opacity="0.72">
<path d="M10.4995 164.5C77.4995 155.961 91.5736 152.994 160.977 155.961C231.939 158.995 267.91 249.934 338.873 252.968C406.716 255.868 447.723 137.961 515.566 140.862C586.529 143.896 619.824 347.504 690.786 350.537C760.969 353.538 779.665 271.813 849.848 274.813C920.031 277.814 957.737 317.937 1027.92 320.938C1052.09 321.971 1106.23 279.217 1106.23 279.217" stroke="white" stroke-width="5"/>
</g>
<g style="mix-blend-mode:overlay" opacity="0.72">
<path d="M1660.09 179.619C1660.09 179.619 1628.02 193.377 1607.89 192.516C1541.52 189.679 1505.83 152.393 1439.46 149.555C1371.6 146.654 1330.84 194.281 1262.98 191.379C1198.1 188.606 1168.88 67.696 1104 64.9223C1036.14 62.021 987.418 262.123 919.556 259.221C852.44 256.352 841.451 173.358 774.335 170.489C707.219 167.619 667.946 204.452 600.83 201.582C577.713 200.594 571.143 187.774 571.143 187.774" stroke="white" stroke-width="5"/>
</g>
</svg>
