<svg width="210" height="36" viewBox="0 0 210 36" fill="none" xmlns="http://www.w3.org/2000/svg">
<rect width="35.857" height="35.857" rx="17.9285" fill="#FFFEFF"/>
<ellipse cx="17.9283" cy="17.9996" rx="17.9283" ry="17.9996" fill="url(#paint0_linear_6_490)" style="mix-blend-mode:color-burn"/>
<ellipse cx="17.9283" cy="17.9996" rx="17.9283" ry="17.9996" fill="url(#paint1_linear_6_490)"/>
<path d="M5.78198 18.0208C4.78566 18.5895 4.87824 20.1061 5.94069 20.5469L12.1258 23.1259V27.6798C12.1258 28.4778 12.7694 29.1214 13.5674 29.1214C13.995 29.1214 14.4006 28.9318 14.6739 28.6012L17.4071 25.3257L22.8693 27.6005C23.7025 27.9487 24.6679 27.4021 24.8046 26.5116L27.626 8.17229C27.7098 7.63887 27.4761 7.10103 27.0309 6.79685C26.5856 6.49266 26.0037 6.46621 25.532 6.73513L5.78198 18.0208ZM8.0788 19.145L23.1338 10.5441L13.4527 21.3625L13.5056 21.4066L8.0788 19.145ZM22.8516 25.3037L15.5071 22.2398L24.9456 11.6903L22.8516 25.3037Z" fill="#2F2522"/>
<path d="M49.6998 26.5V10.1448H55.8272C57.8236 10.1448 59.3363 10.4981 60.3652 11.2045C61.4094 11.9109 61.9316 13.032 61.9316 14.5676C61.9316 15.2587 61.7857 15.8653 61.4939 16.3874C61.2175 16.8942 60.8028 17.2935 60.25 17.5853C59.7125 17.8771 59.0598 18.0383 58.292 18.069L58.2689 18.023C59.6664 18.069 60.7414 18.453 61.4939 19.1747C62.2464 19.8812 62.6226 20.8256 62.6226 22.0081C62.6226 23.5131 62.1005 24.6418 61.0562 25.3943C60.0273 26.1314 58.5607 26.5 56.6565 26.5H49.6998ZM52.6944 23.9661H56.5183C57.455 23.9661 58.1922 23.7741 58.7297 23.3902C59.2825 23.0063 59.5589 22.4381 59.5589 21.6856C59.5589 20.9331 59.2902 20.3572 58.7527 19.9579C58.2152 19.5587 57.4704 19.359 56.5183 19.359H52.6944V23.9661ZM52.6944 17.0094H55.7351C56.7179 17.0094 57.4857 16.8251 58.0386 16.4566C58.5914 16.088 58.8679 15.5505 58.8679 14.8441C58.8679 14.1069 58.5991 13.5618 58.0616 13.2086C57.5241 12.8553 56.7486 12.6787 55.7351 12.6787H52.6944V17.0094ZM70.2573 26.7764C69.0441 26.7764 67.9768 26.5154 67.0553 25.9932C66.1493 25.4557 65.4429 24.7032 64.9361 23.7357C64.4447 22.7683 64.199 21.6395 64.199 20.3495C64.199 19.0442 64.4447 17.9155 64.9361 16.9633C65.4429 15.9958 66.1493 15.251 67.0553 14.7289C67.9768 14.1914 69.0441 13.9227 70.2573 13.9227C71.4705 13.9227 72.5301 14.1914 73.4362 14.7289C74.3422 15.251 75.041 15.9958 75.5324 16.9633C76.0392 17.9155 76.2926 19.0442 76.2926 20.3495C76.2926 21.6395 76.0392 22.7683 75.5324 23.7357C75.041 24.7032 74.3422 25.4557 73.4362 25.9932C72.5301 26.5154 71.4705 26.7764 70.2573 26.7764ZM70.2573 24.3807C71.2094 24.3807 71.9389 24.0275 72.4456 23.3211C72.9678 22.6147 73.2288 21.6242 73.2288 20.3495C73.2288 19.0903 72.9678 18.1074 72.4456 17.401C71.9389 16.6792 71.2094 16.3183 70.2573 16.3183C69.3051 16.3183 68.568 16.6792 68.0459 17.401C67.5237 18.1074 67.2627 19.0903 67.2627 20.3495C67.2627 21.6242 67.5237 22.6147 68.0459 23.3211C68.568 24.0275 69.3051 24.3807 70.2573 24.3807ZM83.4514 26.7764C82.2382 26.7764 81.1708 26.5154 80.2494 25.9932C79.3434 25.4557 78.6369 24.7032 78.1302 23.7357C77.6387 22.7683 77.393 21.6395 77.393 20.3495C77.393 19.0442 77.6387 17.9155 78.1302 16.9633C78.6369 15.9958 79.3434 15.251 80.2494 14.7289C81.1708 14.1914 82.2382 13.9227 83.4514 13.9227C84.6646 13.9227 85.7242 14.1914 86.6302 14.7289C87.5363 15.251 88.235 15.9958 88.7265 16.9633C89.2332 17.9155 89.4866 19.0442 89.4866 20.3495C89.4866 21.6395 89.2332 22.7683 88.7265 23.7357C88.235 24.7032 87.5363 25.4557 86.6302 25.9932C85.7242 26.5154 84.6646 26.7764 83.4514 26.7764ZM83.4514 24.3807C84.4035 24.3807 85.1329 24.0275 85.6397 23.3211C86.1619 22.6147 86.4229 21.6242 86.4229 20.3495C86.4229 19.0903 86.1619 18.1074 85.6397 17.401C85.1329 16.6792 84.4035 16.3183 83.4514 16.3183C82.4992 16.3183 81.7621 16.6792 81.24 17.401C80.7178 18.1074 80.4567 19.0903 80.4567 20.3495C80.4567 21.6242 80.7178 22.6147 81.24 23.3211C81.7621 24.0275 82.4992 24.3807 83.4514 24.3807ZM91.3012 26.5V10.1448H94.2498V19.7506L99.2945 14.1991H102.934L98.1197 19.3129L103.095 26.5H99.7783L96.1847 21.0636L94.2498 23.1138V26.5H91.3012ZM104.158 26.5V14.1991H107.106V26.5H104.158ZM104.112 12.5636V9.93752H107.176V12.5636H104.112ZM110.063 26.5V14.1991H112.736L112.851 17.6544L112.505 17.5162C112.628 16.6562 112.881 15.9651 113.265 15.443C113.649 14.9209 114.118 14.5369 114.67 14.2912C115.223 14.0455 115.83 13.9227 116.49 13.9227C117.396 13.9227 118.157 14.1223 118.771 14.5216C119.4 14.9209 119.876 15.4737 120.199 16.1801C120.521 16.8712 120.683 17.6774 120.683 18.5988V26.5H117.734V19.5433C117.734 18.8522 117.665 18.2687 117.527 17.7926C117.389 17.3165 117.158 16.9557 116.836 16.7099C116.529 16.4489 116.114 16.3183 115.592 16.3183C114.809 16.3183 114.179 16.5948 113.703 17.1476C113.242 17.7005 113.012 18.499 113.012 19.5433V26.5H110.063ZM128.397 30.2317C127.322 30.2317 126.401 30.0858 125.633 29.7941C124.865 29.5023 124.243 29.0876 123.767 28.5502C123.306 28.028 122.984 27.4214 122.799 26.7304L125.84 26.523C125.994 26.9837 126.255 27.3446 126.623 27.6057C127.007 27.8668 127.599 27.9973 128.397 27.9973C129.303 27.9973 130.002 27.79 130.493 27.3753C130.985 26.9761 131.23 26.3464 131.23 25.4864V23.92C130.939 24.519 130.47 25.0027 129.825 25.3713C129.18 25.7245 128.459 25.9011 127.66 25.9011C126.646 25.9011 125.74 25.6554 124.942 25.1639C124.159 24.6572 123.544 23.9584 123.099 23.0677C122.654 22.1617 122.431 21.1174 122.431 19.9349C122.431 18.7524 122.646 17.7158 123.076 16.8251C123.521 15.9191 124.136 15.2126 124.919 14.7059C125.702 14.1837 126.6 13.9227 127.614 13.9227C128.505 13.9227 129.272 14.1223 129.917 14.5216C130.562 14.9209 131.031 15.4507 131.323 16.111V14.1991H134.202V25.4173C134.202 26.4616 133.956 27.3446 133.465 28.0664C132.989 28.7882 132.313 29.3257 131.438 29.6789C130.578 30.0475 129.564 30.2317 128.397 30.2317ZM128.351 23.5975C129.226 23.5975 129.925 23.275 130.447 22.63C130.969 21.9697 131.238 21.0636 131.253 19.9119C131.269 19.144 131.154 18.4913 130.908 17.9539C130.678 17.401 130.34 16.9787 129.894 16.6869C129.464 16.3798 128.95 16.2262 128.351 16.2262C127.445 16.2262 126.739 16.5641 126.232 17.2398C125.74 17.9001 125.495 18.7908 125.495 19.9119C125.495 21.0329 125.748 21.9313 126.255 22.607C126.777 23.2674 127.476 23.5975 128.351 23.5975ZM137.199 26.5V10.1448H140.194V25.5786L138.558 23.897H147.957V26.5H137.199ZM154.584 26.7764C153.356 26.7764 152.289 26.5154 151.382 25.9932C150.476 25.4557 149.778 24.7032 149.286 23.7357C148.795 22.7683 148.549 21.6395 148.549 20.3495C148.549 19.0596 148.795 17.9385 149.286 16.9864C149.778 16.0189 150.469 15.2664 151.359 14.7289C152.266 14.1914 153.317 13.9227 154.515 13.9227C155.682 13.9227 156.704 14.1837 157.579 14.7059C158.47 15.228 159.153 15.9805 159.629 16.9633C160.105 17.9462 160.343 19.1287 160.343 20.5108V21.1788H151.613C151.674 22.2538 151.966 23.0677 152.488 23.6206C153.026 24.1581 153.732 24.4268 154.607 24.4268C155.268 24.4268 155.813 24.2809 156.243 23.9891C156.688 23.682 156.995 23.2597 157.164 22.7222L160.182 22.9065C159.844 24.1043 159.176 25.0488 158.178 25.7398C157.195 26.4309 155.997 26.7764 154.584 26.7764ZM151.613 19.1978H157.303C157.241 18.1996 156.957 17.4624 156.45 16.9864C155.943 16.4949 155.299 16.2492 154.515 16.2492C153.732 16.2492 153.079 16.5026 152.557 17.0094C152.051 17.5162 151.736 18.2456 151.613 19.1978ZM166.564 26.7764C165.52 26.7764 164.614 26.5154 163.846 25.9932C163.093 25.4711 162.51 24.7263 162.095 23.7588C161.681 22.7913 161.473 21.6549 161.473 20.3495C161.473 19.0442 161.681 17.9078 162.095 16.9403C162.51 15.9728 163.101 15.228 163.869 14.7059C164.637 14.1837 165.535 13.9227 166.564 13.9227C167.424 13.9227 168.177 14.0993 168.822 14.4525C169.482 14.8057 169.981 15.3048 170.319 15.9498V10.1448H173.267V26.5H170.457L170.388 24.6802C170.05 25.3405 169.543 25.855 168.868 26.2236C168.192 26.5921 167.424 26.7764 166.564 26.7764ZM167.462 24.3807C168.077 24.3807 168.591 24.2272 169.006 23.92C169.436 23.6129 169.758 23.1599 169.973 22.5609C170.204 21.9467 170.319 21.2095 170.319 20.3495C170.319 19.4742 170.204 18.7371 169.973 18.1381C169.758 17.5392 169.436 17.0862 169.006 16.779C168.591 16.4719 168.077 16.3183 167.462 16.3183C166.572 16.3183 165.858 16.6792 165.32 17.401C164.798 18.1074 164.537 19.0903 164.537 20.3495C164.537 21.5781 164.798 22.5609 165.32 23.2981C165.858 24.0199 166.572 24.3807 167.462 24.3807ZM181.061 30.2317C179.986 30.2317 179.065 30.0858 178.297 29.7941C177.529 29.5023 176.907 29.0876 176.431 28.5502C175.97 28.028 175.648 27.4214 175.463 26.7304L178.504 26.523C178.658 26.9837 178.919 27.3446 179.287 27.6057C179.671 27.8668 180.262 27.9973 181.061 27.9973C181.967 27.9973 182.666 27.79 183.157 27.3753C183.649 26.9761 183.894 26.3464 183.894 25.4864V23.92C183.603 24.519 183.134 25.0027 182.489 25.3713C181.844 25.7245 181.122 25.9011 180.324 25.9011C179.31 25.9011 178.404 25.6554 177.606 25.1639C176.822 24.6572 176.208 23.9584 175.763 23.0677C175.317 22.1617 175.095 21.1174 175.095 19.9349C175.095 18.7524 175.31 17.7158 175.74 16.8251C176.185 15.9191 176.799 15.2126 177.583 14.7059C178.366 14.1837 179.264 13.9227 180.278 13.9227C181.168 13.9227 181.936 14.1223 182.581 14.5216C183.226 14.9209 183.695 15.4507 183.986 16.111V14.1991H186.866V25.4173C186.866 26.4616 186.62 27.3446 186.129 28.0664C185.653 28.7882 184.977 29.3257 184.102 29.6789C183.242 30.0475 182.228 30.2317 181.061 30.2317ZM181.015 23.5975C181.89 23.5975 182.589 23.275 183.111 22.63C183.633 21.9697 183.902 21.0636 183.917 19.9119C183.933 19.144 183.818 18.4913 183.572 17.9539C183.341 17.401 183.004 16.9787 182.558 16.6869C182.128 16.3798 181.614 16.2262 181.015 16.2262C180.109 16.2262 179.402 16.5641 178.896 17.2398C178.404 17.9001 178.158 18.7908 178.158 19.9119C178.158 21.0329 178.412 21.9313 178.919 22.607C179.441 23.2674 180.14 23.5975 181.015 23.5975ZM194.729 26.7764C193.5 26.7764 192.433 26.5154 191.527 25.9932C190.621 25.4557 189.922 24.7032 189.431 23.7357C188.939 22.7683 188.694 21.6395 188.694 20.3495C188.694 19.0596 188.939 17.9385 189.431 16.9864C189.922 16.0189 190.613 15.2664 191.504 14.7289C192.41 14.1914 193.462 13.9227 194.66 13.9227C195.827 13.9227 196.848 14.1837 197.724 14.7059C198.614 15.228 199.298 15.9805 199.774 16.9633C200.25 17.9462 200.488 19.1287 200.488 20.5108V21.1788H191.757C191.819 22.2538 192.111 23.0677 192.633 23.6206C193.17 24.1581 193.877 24.4268 194.752 24.4268C195.412 24.4268 195.958 24.2809 196.388 23.9891C196.833 23.682 197.14 23.2597 197.309 22.7222L200.327 22.9065C199.989 24.1043 199.321 25.0488 198.323 25.7398C197.34 26.4309 196.142 26.7764 194.729 26.7764ZM191.757 19.1978H197.447C197.386 18.1996 197.102 17.4624 196.595 16.9864C196.088 16.4949 195.443 16.2492 194.66 16.2492C193.877 16.2492 193.224 16.5026 192.702 17.0094C192.195 17.5162 191.88 18.2456 191.757 19.1978ZM202.332 26.5V14.1991H205.096L205.211 17.6083L204.958 17.5623C205.142 16.3798 205.488 15.5275 205.995 15.0053C206.517 14.4678 207.223 14.1991 208.114 14.1991H209.243V16.733H208.091C207.461 16.733 206.939 16.8251 206.524 17.0094C206.11 17.1937 205.795 17.4855 205.58 17.8847C205.38 18.2687 205.281 18.7755 205.281 19.4051V26.5H202.332Z" fill="#2F2522"/>
<defs>
<linearGradient id="paint0_linear_6_490" x1="17.9283" y1="0" x2="17.9283" y2="35.9993" gradientUnits="userSpaceOnUse">
<stop stop-color="#FFE4DA"/>
<stop offset="1" stop-color="#FFCDBB"/>
</linearGradient>
<linearGradient id="paint1_linear_6_490" x1="17.9283" y1="0" x2="17.9283" y2="35.9993" gradientUnits="userSpaceOnUse">
<stop stop-color="#FFE4DA"/>
<stop offset="1" stop-color="#FFCDBB"/>
</linearGradient>
</defs>
</svg>
